<svg width="158" height="32" viewBox="0 0 158 32" fill="none" xmlns="http://www.w3.org/2000/svg">
<g filter="url(#filter0_d_1_277)">
<path d="M20.8906 20.2838C14.4673 22.281 4.09272 20.2399 4.00057 11.3449C3.90842 2.44983 14.9806 7.74852 14.9806 7.74852L20.8906 20.2838Z" fill="#FFC250"/>
<path d="M7.12363 6.35426C11.6066 5.58608 15.0113 11.5265 18.7782 17.7232C22.5452 23.92 32.3542 26.3762 38.6218 21.165C44.8893 15.9539 47.542 6.82713 39.8464 1.38317C32.1509 -4.06079 27.3471 8.29872 20.7221 8.63845C14.0972 8.97819 14.0488 4.05367 7.12363 6.35426Z" fill="#FFD064"/>
<circle cx="39.1972" cy="11.6219" r="1.96745" fill="#FFE19D"/>
<circle cx="35.4262" cy="13.0974" r="1.47559" fill="#FFE19D"/>
<circle cx="38.0495" cy="15.0648" r="1.14768" fill="#FFE19D"/>
<path d="M55.1087 20V3.2H61.8527C63.5967 3.2 64.9247 3.608 65.8367 4.424C66.7647 5.224 67.2287 6.256 67.2287 7.52C67.2287 8.576 66.9407 9.424 66.3647 10.064C65.8047 10.688 65.1167 11.112 64.3007 11.336C65.2607 11.528 66.0527 12.008 66.6767 12.776C67.3007 13.528 67.6127 14.408 67.6127 15.416C67.6127 16.744 67.1327 17.84 66.1727 18.704C65.2127 19.568 63.8527 20 62.0927 20H55.1087ZM58.1807 10.256H61.3967C62.2607 10.256 62.9247 10.056 63.3887 9.656C63.8527 9.256 64.0847 8.688 64.0847 7.952C64.0847 7.248 63.8527 6.696 63.3887 6.296C62.9407 5.88 62.2607 5.672 61.3487 5.672H58.1807V10.256ZM58.1807 17.504H61.6127C62.5247 17.504 63.2287 17.296 63.7247 16.88C64.2367 16.448 64.4927 15.848 64.4927 15.08C64.4927 14.296 64.2287 13.68 63.7007 13.232C63.1727 12.784 62.4607 12.56 61.5647 12.56H58.1807V17.504ZM73.3213 20.288C72.2973 20.288 71.4573 20.128 70.8013 19.808C70.1453 19.472 69.6573 19.032 69.3373 18.488C69.0173 17.944 68.8573 17.344 68.8573 16.688C68.8573 15.584 69.2893 14.688 70.1533 14C71.0173 13.312 72.3133 12.968 74.0413 12.968H77.0653V12.68C77.0653 11.864 76.8333 11.264 76.3693 10.88C75.9053 10.496 75.3293 10.304 74.6413 10.304C74.0173 10.304 73.4733 10.456 73.0093 10.76C72.5453 11.048 72.2573 11.48 72.1453 12.056H69.1453C69.2253 11.192 69.5133 10.44 70.0093 9.8C70.5213 9.16 71.1773 8.672 71.9773 8.336C72.7773 7.984 73.6733 7.808 74.6653 7.808C76.3613 7.808 77.6973 8.232 78.6733 9.08C79.6493 9.928 80.1373 11.128 80.1373 12.68V20H77.5213L77.2333 18.08C76.8813 18.72 76.3853 19.248 75.7453 19.664C75.1213 20.08 74.3133 20.288 73.3213 20.288ZM74.0173 17.888C74.8973 17.888 75.5773 17.6 76.0573 17.024C76.5533 16.448 76.8653 15.736 76.9933 14.888H74.3773C73.5613 14.888 72.9773 15.04 72.6253 15.344C72.2733 15.632 72.0973 15.992 72.0973 16.424C72.0973 16.888 72.2733 17.248 72.6253 17.504C72.9773 17.76 73.4413 17.888 74.0173 17.888ZM87.2488 20C86.0008 20 85.0008 19.696 84.2488 19.088C83.4968 18.48 83.1208 17.4 83.1208 15.848V10.664H81.0808V8.096H83.1208L83.4808 4.904H86.1928V8.096H89.4088V10.664H86.1928V15.872C86.1928 16.448 86.3128 16.848 86.5528 17.072C86.8088 17.28 87.2408 17.384 87.8488 17.384H89.3368V20H87.2488ZM95.1904 20.288C94.1664 20.288 93.3264 20.128 92.6704 19.808C92.0144 19.472 91.5264 19.032 91.2064 18.488C90.8864 17.944 90.7264 17.344 90.7264 16.688C90.7264 15.584 91.1584 14.688 92.0224 14C92.8864 13.312 94.1824 12.968 95.9104 12.968H98.9344V12.68C98.9344 11.864 98.7024 11.264 98.2384 10.88C97.7744 10.496 97.1984 10.304 96.5104 10.304C95.8864 10.304 95.3424 10.456 94.8784 10.76C94.4144 11.048 94.1264 11.48 94.0144 12.056H91.0144C91.0944 11.192 91.3824 10.44 91.8784 9.8C92.3904 9.16 93.0464 8.672 93.8464 8.336C94.6464 7.984 95.5424 7.808 96.5344 7.808C98.2304 7.808 99.5664 8.232 100.542 9.08C101.518 9.928 102.006 11.128 102.006 12.68V20H99.3904L99.1024 18.08C98.7504 18.72 98.2544 19.248 97.6144 19.664C96.9904 20.08 96.1824 20.288 95.1904 20.288ZM95.8864 17.888C96.7664 17.888 97.4464 17.6 97.9264 17.024C98.4224 16.448 98.7344 15.736 98.8624 14.888H96.2464C95.4304 14.888 94.8464 15.04 94.4944 15.344C94.1424 15.632 93.9664 15.992 93.9664 16.424C93.9664 16.888 94.1424 17.248 94.4944 17.504C94.8464 17.76 95.3104 17.888 95.8864 17.888ZM109.118 20C107.87 20 106.87 19.696 106.118 19.088C105.366 18.48 104.99 17.4 104.99 15.848V10.664H102.95V8.096H104.99L105.35 4.904H108.062V8.096H111.278V10.664H108.062V15.872C108.062 16.448 108.182 16.848 108.422 17.072C108.678 17.28 109.11 17.384 109.718 17.384H111.206V20H109.118ZM117.059 20.288C116.035 20.288 115.195 20.128 114.539 19.808C113.883 19.472 113.395 19.032 113.075 18.488C112.755 17.944 112.595 17.344 112.595 16.688C112.595 15.584 113.027 14.688 113.891 14C114.755 13.312 116.051 12.968 117.779 12.968H120.803V12.68C120.803 11.864 120.571 11.264 120.107 10.88C119.643 10.496 119.067 10.304 118.379 10.304C117.755 10.304 117.211 10.456 116.747 10.76C116.283 11.048 115.995 11.48 115.883 12.056H112.883C112.963 11.192 113.251 10.44 113.747 9.8C114.259 9.16 114.915 8.672 115.715 8.336C116.515 7.984 117.411 7.808 118.403 7.808C120.099 7.808 121.435 8.232 122.411 9.08C123.387 9.928 123.875 11.128 123.875 12.68V20H121.259L120.971 18.08C120.619 18.72 120.123 19.248 119.483 19.664C118.859 20.08 118.051 20.288 117.059 20.288ZM117.755 17.888C118.635 17.888 119.315 17.6 119.795 17.024C120.291 16.448 120.603 15.736 120.731 14.888H118.115C117.299 14.888 116.715 15.04 116.363 15.344C116.011 15.632 115.835 15.992 115.835 16.424C115.835 16.888 116.011 17.248 116.363 17.504C116.715 17.76 117.179 17.888 117.755 17.888ZM132.903 20.288C132.007 20.288 131.223 20.12 130.551 19.784C129.879 19.448 129.335 18.976 128.919 18.368L128.583 20H125.847V2.72H128.919V9.8C129.303 9.272 129.807 8.808 130.431 8.408C131.071 8.008 131.895 7.808 132.903 7.808C134.023 7.808 135.023 8.08 135.903 8.624C136.783 9.168 137.479 9.912 137.991 10.856C138.503 11.8 138.759 12.872 138.759 14.072C138.759 15.272 138.503 16.344 137.991 17.288C137.479 18.216 136.783 18.952 135.903 19.496C135.023 20.024 134.023 20.288 132.903 20.288ZM132.255 17.6C133.231 17.6 134.039 17.272 134.679 16.616C135.319 15.96 135.639 15.112 135.639 14.072C135.639 13.032 135.319 12.176 134.679 11.504C134.039 10.832 133.231 10.496 132.255 10.496C131.263 10.496 130.447 10.832 129.807 11.504C129.183 12.16 128.871 13.008 128.871 14.048C128.871 15.088 129.183 15.944 129.807 16.616C130.447 17.272 131.263 17.6 132.255 17.6ZM142.199 6.248C141.639 6.248 141.175 6.08 140.807 5.744C140.455 5.408 140.279 4.984 140.279 4.472C140.279 3.96 140.455 3.544 140.807 3.224C141.175 2.888 141.639 2.72 142.199 2.72C142.759 2.72 143.215 2.888 143.567 3.224C143.935 3.544 144.119 3.96 144.119 4.472C144.119 4.984 143.935 5.408 143.567 5.744C143.215 6.08 142.759 6.248 142.199 6.248ZM140.663 20V8.096H143.735V20H140.663ZM151.286 20C150.038 20 149.038 19.696 148.286 19.088C147.534 18.48 147.158 17.4 147.158 15.848V10.664H145.118V8.096H147.158L147.518 4.904H150.23V8.096H153.446V10.664H150.23V15.872C150.23 16.448 150.35 16.848 150.59 17.072C150.846 17.28 151.278 17.384 151.886 17.384H153.374V20H151.286Z" fill="#F7931A"/>
</g>
<defs>
<filter id="filter0_d_1_277" x="0" y="0" width="157.446" height="32" filterUnits="userSpaceOnUse" color-interpolation-filters="sRGB">
<feFlood flood-opacity="0" result="BackgroundImageFix"/>
<feColorMatrix in="SourceAlpha" type="matrix" values="0 0 0 0 0 0 0 0 0 0 0 0 0 0 0 0 0 0 127 0" result="hardAlpha"/>
<feOffset dy="4"/>
<feGaussianBlur stdDeviation="2"/>
<feComposite in2="hardAlpha" operator="out"/>
<feColorMatrix type="matrix" values="0 0 0 0 0 0 0 0 0 0 0 0 0 0 0 0 0 0 0.25 0"/>
<feBlend mode="normal" in2="BackgroundImageFix" result="effect1_dropShadow_1_277"/>
<feBlend mode="normal" in="SourceGraphic" in2="effect1_dropShadow_1_277" result="shape"/>
</filter>
</defs>
</svg>
